# xmcd
#
# Track frame offsets:
# 150
# 12285
# 23885
# 39322
# 52817
# 66655
# 77030
# 88650
# 100207
# 112315
# 123557
#
# Disc length: 1765 seconds
#
# Revision: 0
# Processed by: cddbd v1.4PL0 Copyright (c) Steve Scherf et al.
# Submitted via: Audion 3.0.2 (http://www.panic.com/audion/)
#
DISCID=9006e30b
DTITLE=Platters, The - The Platters Have The Magic Touch
DYEAR=1900
DGENRE=
TTITLE0=(You;ve Got) The Magic Touch
TTITLE1=I Love You Yes I Do
TTITLE2=My Prayer
TTITLE3=I'm Sorry
TTITLE4=Alone In The Night
TTITLE5=One In A Million
TTITLE6=Wish It Were Me
TTITLE7=Love Letter
TTITLE8=What Name Shall I Give You My Love
TTITLE9=All My Love Belongs To You
TTITLE10=Devri
EXTD=
EXTT0=
EXTT1=
EXTT2=
EXTT3=
EXTT4=
EXTT5=
EXTT6=
EXTT7=
EXTT8=
EXTT9=
EXTT10=
PLAYORDER=
